<svg id="Warstwa_1" data-name="Warstwa 1" xmlns="http://www.w3.org/2000/svg" viewBox="0 0 402.14 153.37"><defs><style>.cls-1,.cls-4{fill:#f39200;}.cls-2,.cls-6{fill:#fff;}.cls-3{fill:none;}.cls-4,.cls-6,.cls-8{isolation:isolate;}.cls-4{font-size:41.01px;letter-spacing:-0.03em;}.cls-4,.cls-6{font-family:Geometric212BT-BookCondensed, Geometr212 BkCn BT;}.cls-5{letter-spacing:0em;}.cls-6{font-size:16.4px;}.cls-7{fill:#f6f6f6;}.cls-8{font-size:10.39px;font-family:Geometric212BT-HeavyCondensed, Geometr212 BkCn BT;font-weight:800;letter-spacing:-0.06em;}.cls-9{letter-spacing:0em;}</style></defs><rect x="0.54" width="254.3" height="144.25"/><circle class="cls-1" cx="61.69" cy="101.89" r="8.76"/><path class="cls-2" d="M60.61,99.45c.52-.6,0-1.39-.39-1.92-.2-.31-.48-.75-.89-.81s-.73.38-1,.62a3,3,0,0,0-1,2.1c0,.09,0,.25,0,.11a6.37,6.37,0,0,0,.29,1.43,5.83,5.83,0,0,0,.64,1.24,11.67,11.67,0,0,0,1.93,2.28,5.7,5.7,0,0,0,2.52,1.44,2.94,2.94,0,0,0,2.52-.6c.26-.21.74-.52.76-.89a1.22,1.22,0,0,0-.53-.89c-.54-.49-1.34-1.29-2.08-.7-.29.24-.59.67-1,.73a1.45,1.45,0,0,1-1-.43,6.33,6.33,0,0,1-1.59-1.9,1,1,0,0,1-.06-1.05C60,99.89,60.36,99.74,60.61,99.45Z" transform="translate(0 0.53)"/><rect class="cls-3" x="79.33" y="50.41" width="173.71" height="102.96"/><text class="cls-4" transform="translate(79.33 82.68)">T<tspan class="cls-5" x="27.27" y="0">AXI</tspan></text><rect class="cls-3" x="75.44" y="95.42" width="326.7" height="34.99"/><text class="cls-6" transform="translate(75.44 108.33)">+48 111 222 333</text><rect x="243.58" y="0.27" width="5.63" height="5.77"/><rect class="cls-7" x="249.21" y="0.27" width="5.63" height="5.77"/><rect class="cls-7" x="243.58" y="6.04" width="5.63" height="5.77"/><rect x="249.21" y="6.04" width="5.63" height="5.77"/><rect x="243.58" y="11.82" width="5.63" height="5.77"/><rect class="cls-7" x="249.21" y="11.82" width="5.63" height="5.77"/><rect class="cls-7" x="243.58" y="17.59" width="5.63" height="5.77"/><rect x="249.21" y="17.59" width="5.63" height="5.77"/><rect x="243.58" y="23.36" width="5.63" height="5.77"/><rect class="cls-7" x="249.21" y="23.36" width="5.63" height="5.77"/><rect class="cls-7" x="243.58" y="29.14" width="5.63" height="5.77"/><rect x="249.21" y="29.14" width="5.63" height="5.77"/><rect x="243.58" y="34.91" width="5.63" height="5.77"/><rect class="cls-7" x="249.21" y="34.91" width="5.63" height="5.77"/><rect class="cls-7" x="243.58" y="40.68" width="5.63" height="5.77"/><rect x="249.21" y="40.68" width="5.63" height="5.77"/><rect x="243.58" y="46.46" width="5.63" height="5.82"/><rect class="cls-7" x="249.21" y="46.46" width="5.63" height="5.82"/><rect class="cls-7" x="243.58" y="52.28" width="5.63" height="5.82"/><rect x="249.21" y="52.28" width="5.63" height="5.82"/><rect x="243.58" y="58.09" width="5.63" height="5.82"/><rect class="cls-7" x="249.21" y="58.09" width="5.63" height="5.82"/><rect class="cls-7" x="243.58" y="63.91" width="5.63" height="5.82"/><rect x="249.21" y="63.91" width="5.63" height="5.82"/><rect x="243.58" y="69.73" width="5.63" height="5.82"/><rect class="cls-7" x="249.21" y="69.73" width="5.63" height="5.82"/><rect class="cls-7" x="243.58" y="75.55" width="5.63" height="5.82"/><rect x="249.21" y="75.55" width="5.63" height="5.82"/><rect x="243.58" y="81.37" width="5.63" height="5.82"/><rect class="cls-7" x="249.21" y="81.37" width="5.63" height="5.82"/><rect class="cls-7" x="243.58" y="87.19" width="5.63" height="5.82"/><rect x="249.21" y="87.19" width="5.63" height="5.82"/><rect x="243.58" y="93.48" width="5.63" height="5.63"/><rect class="cls-7" x="249.21" y="93.48" width="5.63" height="5.63"/><rect class="cls-7" x="243.58" y="99.11" width="5.63" height="5.63"/><rect x="249.21" y="99.11" width="5.63" height="5.63"/><rect x="243.58" y="104.74" width="5.63" height="5.63"/><rect class="cls-7" x="249.21" y="104.74" width="5.63" height="5.63"/><rect class="cls-7" x="243.58" y="110.37" width="5.63" height="5.63"/><rect x="249.21" y="110.37" width="5.63" height="5.63"/><rect x="243.58" y="116" width="5.63" height="5.63"/><rect class="cls-7" x="249.21" y="116" width="5.63" height="5.63"/><rect class="cls-7" x="243.58" y="121.63" width="5.63" height="5.63"/><rect x="249.21" y="121.63" width="5.63" height="5.63"/><rect x="243.58" y="127.25" width="5.63" height="5.63"/><rect class="cls-7" x="249.21" y="127.25" width="5.63" height="5.63"/><rect class="cls-7" x="243.58" y="132.88" width="5.63" height="5.63"/><rect x="249.21" y="132.88" width="5.63" height="5.63"/><rect class="cls-7" x="249.21" y="138.85" width="5.63" height="5.63"/><rect x="5.63" y="0.02" width="5.63" height="5.77"/><rect class="cls-7" y="0.02" width="5.63" height="5.77"/><rect class="cls-7" x="5.63" y="5.8" width="5.63" height="5.77"/><rect y="5.8" width="5.63" height="5.77"/><rect x="5.63" y="11.57" width="5.63" height="5.77"/><rect class="cls-7" y="11.57" width="5.63" height="5.77"/><rect class="cls-7" x="5.63" y="17.34" width="5.63" height="5.77"/><rect y="17.34" width="5.63" height="5.77"/><rect x="5.63" y="23.12" width="5.63" height="5.77"/><rect class="cls-7" y="23.12" width="5.63" height="5.77"/><rect class="cls-7" x="5.63" y="28.89" width="5.63" height="5.77"/><rect y="28.89" width="5.63" height="5.77"/><rect x="5.63" y="34.66" width="5.63" height="5.77"/><rect class="cls-7" y="34.66" width="5.63" height="5.77"/><rect class="cls-7" x="5.63" y="40.44" width="5.63" height="5.77"/><rect y="40.44" width="5.63" height="5.77"/><rect x="5.63" y="46.21" width="5.63" height="5.82"/><rect class="cls-7" y="46.21" width="5.63" height="5.82"/><rect class="cls-7" x="5.63" y="52.03" width="5.63" height="5.82"/><rect y="52.03" width="5.63" height="5.82"/><rect x="5.63" y="57.85" width="5.63" height="5.82"/><rect class="cls-7" y="57.85" width="5.63" height="5.82"/><rect class="cls-7" x="5.63" y="63.67" width="5.63" height="5.82"/><rect y="63.67" width="5.63" height="5.82"/><rect x="5.63" y="69.49" width="5.63" height="5.82"/><rect class="cls-7" y="69.49" width="5.63" height="5.82"/><rect class="cls-7" x="5.63" y="75.3" width="5.63" height="5.82"/><rect y="75.3" width="5.63" height="5.82"/><rect x="5.63" y="81.12" width="5.63" height="5.82"/><rect class="cls-7" y="81.12" width="5.63" height="5.82"/><rect class="cls-7" x="5.63" y="86.94" width="5.63" height="5.82"/><rect y="86.94" width="5.63" height="5.82"/><rect x="5.63" y="93.24" width="5.63" height="5.63"/><rect class="cls-7" y="93.24" width="5.63" height="5.63"/><rect class="cls-7" x="5.63" y="98.86" width="5.63" height="5.63"/><rect y="98.86" width="5.63" height="5.63"/><rect x="5.63" y="104.49" width="5.63" height="5.63"/><rect class="cls-7" y="104.49" width="5.63" height="5.63"/><rect class="cls-7" x="5.63" y="110.12" width="5.63" height="5.63"/><rect y="110.12" width="5.63" height="5.63"/><rect x="5.63" y="115.75" width="5.63" height="5.63"/><rect class="cls-7" y="115.75" width="5.63" height="5.63"/><rect class="cls-7" x="5.63" y="121.38" width="5.63" height="5.63"/><rect y="121.38" width="5.63" height="5.63"/><rect x="5.63" y="127.01" width="5.63" height="5.63"/><rect class="cls-7" y="127.01" width="5.63" height="5.63"/><rect class="cls-7" x="5.63" y="132.64" width="5.63" height="5.63"/><rect y="132.64" width="5.63" height="5.63"/><rect class="cls-7" y="138.6" width="5.63" height="5.63"/><path class="cls-1" d="M152,38.47,148.48,27A2.64,2.64,0,0,0,146,25.15H117.2A2.64,2.64,0,0,0,114.68,27l-3.49,11.45a2.63,2.63,0,0,0,2.52,3.4h35.74A2.63,2.63,0,0,0,152,38.47Zm-27.1-9a.05.05,0,0,1-.06.06h-1.62v9.19s0,.05-.06.05h-1.55a0,0,0,0,1,0-.05V29.57h-1.65s0,0,0-.06V28.28s0-.06,0-.06h4.94s0,0,0,.06v1.23ZM131,38.76s0,.05-.06.05h-1.55a0,0,0,0,1-.05-.05V34.51h-1.67v4.25s0,.05-.06.05H126.1a0,0,0,0,1,0-.05V29.65a1.24,1.24,0,0,1,.11-.54,1.23,1.23,0,0,1,.3-.44,1.57,1.57,0,0,1,.45-.31,1.31,1.31,0,0,1,.56-.12h2.15a1.4,1.4,0,0,1,.53.11,1.83,1.83,0,0,1,.46.3,1.57,1.57,0,0,1,.31.45,1.32,1.32,0,0,1,.11.55v9.11Zm7,0s0,.05-.05.05h-1.56s-.06,0-.06-.05V36c0-.25,0-.48,0-.68s0-.38,0-.51v-.25a.45.45,0,0,0-.12-.23A2,2,0,0,0,136,34a3.14,3.14,0,0,0-.32-.25.34.34,0,0,0-.5,0,2.33,2.33,0,0,0-.32.25,2.64,2.64,0,0,0-.29.29.45.45,0,0,0-.12.23v4.2s0,.05-.06.05H132.8a0,0,0,0,1-.05-.05V34.27a2.78,2.78,0,0,1,.75-.72l.54-.32a4.6,4.6,0,0,1-.41-.35,5.4,5.4,0,0,1-.62-.76l0,0,0,0V28.35s0-.06.06-.06h1.56s0,0,0,0h0v3.78a.45.45,0,0,0,.09.2,2.64,2.64,0,0,0,.21.29,1.55,1.55,0,0,0,.25.26.35.35,0,0,0,.22.11.41.41,0,0,0,.22-.11,3.13,3.13,0,0,0,.25-.26,2.17,2.17,0,0,0,.2-.29.6.6,0,0,0,.08-.2V28.31h0s0,0,0,0h1.58s0,0,0,.06v3.71a.09.09,0,0,1,0,.06,6.22,6.22,0,0,1-.62.76,4.35,4.35,0,0,1-.41.35l.54.32a2.78,2.78,0,0,1,.75.72v4.49Zm5.3-9.25a.05.05,0,0,1-.06.06h-1.17v7.84h1.17a.05.05,0,0,1,.06.06v1.26s0,.06,0,.06h-4s0,0,0-.06V37.47s0-.06,0-.06h1.2V29.57h-1.2s0,0,0-.06V28.28s0-.06,0-.06h4s0,0,0,.06Z" transform="translate(0 0.53)"/><path class="cls-1" d="M129.34,29.6h-1.58a0,0,0,0,0-.05,0v3.51h1.67V29.65S129.37,29.6,129.34,29.6Z" transform="translate(0 0.53)"/><rect class="cls-1" x="119.84" y="28.06" width="26.04" height="12.63"/><rect class="cls-3" x="118.16" y="29.44" width="76.24" height="45.19"/><text class="cls-8" transform="translate(118.16 37.61)">T<tspan class="cls-9" x="6.65" y="0">AXI</tspan></text></svg>